<?xml version="1.0" encoding="UTF-8"?>
<svg id="Calque_1" xmlns="http://www.w3.org/2000/svg" version="1.1" viewBox="0 0 100 100">
  <!-- Generator: Adobe Illustrator 29.8.3, SVG Export Plug-In . SVG Version: 2.1.1 Build 3)  -->
  <defs>
    <style>
      .st0 {
        isolation: isolate;
        opacity: .9;
      }
    </style>
  </defs>
  <path d="M32,5l-20,3L2,40l16,5,10-10v55h44v-55l10,10,16-5-10-32-20-3-18,15-18-15Z"/>
  <path class="st0" d="M32,5l18,15,18-15v4l-18,15-18-15v-4Z"/>
  <path d="M28,65h44v5H28v-5Z"/>
  <path d="M28,75h44v5H28v-5Z"/>
  <path d="M28,85h44v5H28v-5Z"/>
  <path d="M9,22l17,4-1,4-17-4,1-4Z"/>
  <path d="M7,30l17,4-1,4-17-4,1-4Z"/>
  <path d="M5,38l17,4-1,4-17-4,1-4Z"/>
  <path d="M91,22l-17,4,1,4,17-4-1-4Z"/>
  <path d="M93,30l-17,4,1,4,17-4-1-4Z"/>
  <path d="M95,38l-17,4,1,4,17-4-1-4Z"/>
</svg>